<svg xmlns="http://www.w3.org/2000/svg" xmlns:xlink="http://www.w3.org/1999/xlink" width="500" zoomAndPan="magnify" viewBox="0 0 375 374.999991" height="500" preserveAspectRatio="xMidYMid meet" version="1.2"><defs><clipPath id="89f1ceacb7"><path d="M 260 38 L 283.785156 38 L 283.785156 316 L 260 316 Z M 260 38 "/></clipPath><clipPath id="0206820acd"><path d="M 93 308 L 283.785156 308 L 283.785156 353 L 93 353 Z M 93 308 "/></clipPath></defs><g id="a29cb25d66"><rect x="0" width="375" y="0" height="374.999991" style="fill:#ffffff;fill-opacity:1;stroke:none;"/><rect x="0" width="375" y="0" height="374.999991" style="fill:#ffffff;fill-opacity:1;stroke:none;"/><path style=" stroke:none;fill-rule:nonzero;fill:#000000;fill-opacity:1;" d="M 157.726562 353.625 C 144.535156 351.269531 132.375 347.429688 119.902344 342.625 C 119.546875 342.488281 119.300781 343.070312 119.640625 343.238281 C 131.285156 349.078125 144.777344 352.554688 157.695312 353.882812 C 157.839844 353.894531 157.875 353.652344 157.726562 353.625 "/><path style=" stroke:none;fill-rule:nonzero;fill:#000000;fill-opacity:1;" d="M 224.859375 352.105469 C 235.121094 351.890625 246.128906 348.828125 254.84375 343.351562 C 255.253906 343.097656 254.898438 342.5 254.472656 342.714844 C 244.851562 347.507812 235.550781 350.546875 224.859375 351.875 C 224.71875 351.894531 224.707031 352.105469 224.859375 352.105469 "/><path style=" stroke:none;fill-rule:nonzero;fill:#000000;fill-opacity:1;" d="M 130.597656 23.472656 C 125.945312 24.191406 121.445312 25.644531 117.429688 28.132812 C 117.152344 28.304688 117.402344 28.734375 117.6875 28.574219 C 121.804688 26.273438 126.011719 24.5625 130.667969 23.734375 C 130.839844 23.707031 130.765625 23.449219 130.597656 23.472656 "/><path style=" stroke:none;fill-rule:nonzero;fill:#000000;fill-opacity:1;" d="M 127.257812 22.257812 C 123.75 22.789062 117.765625 24.417969 116.171875 28.015625 C 115.96875 28.476562 116.613281 28.886719 116.867188 28.421875 C 118.765625 24.964844 123.875 23.679688 127.332031 22.53125 C 127.507812 22.46875 127.433594 22.230469 127.257812 22.257812 "/><path style=" stroke:none;fill-rule:nonzero;fill:#000000;fill-opacity:1;" d="M 238.71875 22.644531 C 244.90625 24.769531 252.46875 25.492188 257.558594 29.886719 C 257.894531 30.175781 258.378906 29.703125 258.050781 29.394531 C 253.214844 24.898438 244.957031 23.839844 238.734375 22.582031 C 238.695312 22.574219 238.679688 22.628906 238.71875 22.644531 "/><path style=" stroke:none;fill-rule:nonzero;fill:#000000;fill-opacity:1;" d="M 244.015625 22.433594 C 248.632812 23.75 253.445312 25.21875 257.15625 28.386719 C 257.585938 28.753906 258.410156 28.25 258.007812 27.730469 C 255.082031 23.921875 248.59375 22.398438 244.097656 21.824219 C 243.742188 21.777344 243.6875 22.339844 244.015625 22.433594 "/><path style=" stroke:none;fill-rule:nonzero;fill:#000000;fill-opacity:1;" d="M 188.089844 23.925781 C 188.632812 22.433594 191.445312 21.597656 192.804688 21.152344 C 194.152344 20.707031 195.5625 20.59375 196.914062 20.195312 C 197.265625 20.089844 197.175781 19.601562 196.828125 19.578125 C 194.824219 19.414062 192.597656 20.234375 190.820312 21.097656 C 189.757812 21.617188 187.71875 22.4375 187.800781 23.886719 C 187.8125 24.054688 188.03125 24.082031 188.089844 23.925781 "/><path style=" stroke:none;fill-rule:nonzero;fill:#000000;fill-opacity:1;" d="M 199.277344 29.121094 C 202.5625 30.363281 206.199219 28.292969 209.203125 27.035156 C 211.855469 25.929688 215.882812 24.933594 216.96875 21.929688 C 217.140625 21.453125 216.347656 21.113281 216.140625 21.582031 C 215.070312 24.054688 211.589844 25.007812 209.320312 25.996094 C 206.488281 27.222656 202.574219 29.433594 199.359375 28.828125 C 199.164062 28.789062 199.09375 29.050781 199.277344 29.121094 "/><path style=" stroke:none;fill-rule:nonzero;fill:#000000;fill-opacity:1;" d="M 246.695312 30.136719 C 249.261719 31.0625 251.960938 32.039062 254.585938 32.777344 C 254.9375 32.875 255.183594 32.335938 254.839844 32.171875 C 252.410156 30.992188 249.402344 30.234375 246.722656 29.941406 C 246.605469 29.929688 246.601562 30.101562 246.695312 30.136719 "/><path style=" stroke:none;fill-rule:nonzero;fill:#000000;fill-opacity:1;" d="M 244.921875 32.023438 C 246.765625 32.726562 248.886719 33.34375 250.863281 33.464844 C 251.226562 33.484375 251.28125 32.945312 250.945312 32.84375 C 249.050781 32.28125 246.988281 31.953125 245.046875 31.585938 C 244.753906 31.53125 244.648438 31.921875 244.921875 32.023438 "/><path style=" stroke:none;fill-rule:nonzero;fill:#000000;fill-opacity:1;" d="M 241.804688 33.9375 C 243.601562 34.417969 245.558594 34.550781 247.398438 34.792969 C 247.820312 34.84375 247.835938 34.15625 247.398438 34.117188 C 245.570312 33.964844 243.667969 33.6875 241.828125 33.777344 C 241.738281 33.78125 241.714844 33.910156 241.804688 33.9375 "/><path style=" stroke:none;fill-rule:nonzero;fill:#000000;fill-opacity:1;" d="M 130.066406 29.132812 C 126.617188 29.671875 123.199219 30.472656 119.949219 31.753906 C 119.511719 31.925781 119.691406 32.636719 120.144531 32.46875 C 123.433594 31.265625 126.710938 30.164062 130.128906 29.371094 C 130.289062 29.335938 130.21875 29.109375 130.066406 29.132812 "/><path style=" stroke:none;fill-rule:nonzero;fill:#000000;fill-opacity:1;" d="M 128.472656 31.460938 C 126.273438 31.898438 123.9375 32.308594 121.835938 33.097656 C 121.429688 33.25 121.582031 33.855469 122.019531 33.757812 C 124.222656 33.269531 126.40625 32.457031 128.570312 31.816406 C 128.800781 31.75 128.703125 31.417969 128.472656 31.460938 "/><path style=" stroke:none;fill-rule:nonzero;fill:#000000;fill-opacity:1;" d="M 159.59375 37.101562 C 157.425781 37.769531 155.285156 38.523438 153.132812 39.242188 C 152.800781 39.351562 152.953125 39.890625 153.277344 39.765625 C 155.402344 38.957031 157.546875 38.175781 159.648438 37.3125 C 159.773438 37.257812 159.730469 37.0625 159.59375 37.101562 "/><path style=" stroke:none;fill-rule:nonzero;fill:#000000;fill-opacity:1;" d="M 178.582031 31.515625 C 176.007812 30.6875 172.878906 30.253906 170.292969 31.261719 C 169.96875 31.386719 169.96875 31.988281 170.386719 31.933594 C 173.21875 31.558594 175.648438 31.160156 178.496094 31.828125 C 178.703125 31.875 178.785156 31.578125 178.582031 31.515625 "/><path style=" stroke:none;fill-rule:nonzero;fill:#000000;fill-opacity:1;" d="M 197.707031 36.230469 C 195.980469 38.203125 193.871094 39.515625 191.628906 40.820312 C 191.21875 41.058594 191.582031 41.613281 191.992188 41.4375 C 194.398438 40.410156 196.363281 38.523438 198.003906 36.527344 C 198.175781 36.324219 197.886719 36.023438 197.707031 36.230469 "/><path style=" stroke:none;fill-rule:nonzero;fill:#000000;fill-opacity:1;" d="M 191.777344 31.476562 C 192.402344 32.394531 192.605469 33.492188 192.195312 34.535156 C 191.839844 35.445312 191.160156 35.886719 190.378906 36.390625 C 190.027344 36.613281 190.25 37.148438 190.65625 37.054688 C 193.289062 36.457031 193.632812 33.039062 192.019531 31.292969 C 191.902344 31.167969 191.683594 31.332031 191.777344 31.476562 "/><path style=" stroke:none;fill-rule:nonzero;fill:#000000;fill-opacity:1;" d="M 189.722656 35.34375 C 188.691406 36.335938 187.789062 37.457031 186.765625 38.460938 C 185.742188 39.464844 184.558594 40.324219 183.574219 41.363281 C 183.269531 41.6875 183.667969 42.269531 184.070312 42.003906 C 185.28125 41.199219 186.296875 40.035156 187.261719 38.957031 C 188.222656 37.886719 189.214844 36.753906 189.910156 35.488281 C 189.976562 35.371094 189.820312 35.246094 189.722656 35.34375 "/><path style=" stroke:none;fill-rule:nonzero;fill:#000000;fill-opacity:1;" d="M 248.28125 41.289062 C 253.425781 40.171875 258.101562 37.703125 261.902344 34.046875 C 262.246094 33.714844 261.726562 33.207031 261.378906 33.527344 C 257.550781 37.054688 253.203125 39.515625 248.183594 40.945312 C 247.960938 41.007812 248.058594 41.339844 248.28125 41.289062 "/><path style=" stroke:none;fill-rule:nonzero;fill:#000000;fill-opacity:1;" d="M 131.148438 43.339844 C 125.042969 41.5625 116.847656 39.046875 114.140625 32.707031 C 113.964844 32.296875 113.269531 32.589844 113.414062 33.011719 C 115.71875 39.839844 124.925781 42.0625 131.039062 43.726562 C 131.289062 43.792969 131.394531 43.410156 131.148438 43.339844 "/><path style=" stroke:none;fill-rule:nonzero;fill:#000000;fill-opacity:1;" d="M 248.980469 49.511719 C 254.039062 48.953125 259.152344 46.765625 263.355469 43.945312 C 263.765625 43.675781 263.390625 43.019531 262.964844 43.28125 C 258.476562 46.039062 253.964844 47.710938 248.941406 49.203125 C 248.777344 49.25 248.796875 49.53125 248.980469 49.511719 "/><path style=" stroke:none;fill-rule:nonzero;fill:#000000;fill-opacity:1;" d="M 254.203125 50.742188 C 257.992188 49.785156 261.941406 48.40625 265.167969 46.144531 C 265.53125 45.894531 265.21875 45.332031 264.816406 45.546875 C 261.300781 47.433594 257.96875 49.292969 254.15625 50.578125 C 254.050781 50.613281 254.09375 50.773438 254.203125 50.742188 "/><path style=" stroke:none;fill-rule:nonzero;fill:#000000;fill-opacity:1;" d="M 260.210938 52.609375 C 262.574219 51.539062 264.976562 50.183594 266.945312 48.472656 C 267.222656 48.234375 266.847656 47.742188 266.550781 47.960938 C 264.417969 49.507812 262.351562 51.042969 260.070312 52.375 C 259.917969 52.464844 260.054688 52.679688 260.210938 52.609375 "/><path style=" stroke:none;fill-rule:nonzero;fill:#000000;fill-opacity:1;" d="M 160.632812 57.746094 C 175.320312 60.265625 191.261719 60.667969 205.976562 58.089844 C 206.347656 58.027344 206.265625 57.398438 205.886719 57.429688 C 198.332031 58.0625 190.878906 58.828125 183.28125 58.765625 C 175.71875 58.703125 168.210938 58.113281 160.695312 57.289062 C 160.433594 57.261719 160.371094 57.703125 160.632812 57.746094 "/><path style=" stroke:none;fill-rule:nonzero;fill:#000000;fill-opacity:1;" d="M 168.675781 61.664062 C 178.742188 63.238281 189.167969 62.96875 199.265625 61.855469 C 199.347656 61.847656 199.347656 61.71875 199.265625 61.726562 C 189.015625 62.605469 178.941406 62.207031 168.695312 61.535156 C 168.625 61.535156 168.605469 61.652344 168.675781 61.664062 "/><path style=" stroke:none;fill-rule:nonzero;fill:#000000;fill-opacity:1;" d="M 166.953125 16.03125 C 173.808594 15.671875 180.578125 15.082031 187.457031 15.207031 C 194.328125 15.335938 201.125 16.171875 207.976562 16.535156 C 208.179688 16.542969 208.234375 16.207031 208.027344 16.171875 C 201.28125 15.027344 194.285156 14.761719 187.457031 14.652344 C 180.664062 14.546875 173.628906 14.632812 166.941406 15.945312 C 166.894531 15.957031 166.90625 16.035156 166.953125 16.03125 "/><path style=" stroke:none;fill-rule:nonzero;fill:#000000;fill-opacity:1;" d="M 226.839844 246.273438 C 220.703125 271.839844 209.140625 295 193.605469 316.113281 C 193.367188 316.4375 193.914062 316.867188 194.167969 316.546875 C 210.277344 296.175781 221.351562 271.601562 227.269531 246.390625 C 227.335938 246.113281 226.90625 245.992188 226.839844 246.273438 "/><path style=" stroke:none;fill-rule:nonzero;fill:#000000;fill-opacity:1;" d="M 206.976562 270.152344 C 200.34375 285.859375 191.527344 300.441406 180.851562 313.726562 C 180.609375 314.027344 181.035156 314.460938 181.28125 314.15625 C 192.046875 300.871094 200.734375 286.074219 207.273438 270.28125 C 207.34375 270.109375 207.046875 269.984375 206.976562 270.152344 "/><path style=" stroke:none;fill-rule:nonzero;fill:#000000;fill-opacity:1;" d="M 256.824219 30.285156 C 253.90625 28.519531 250.480469 27.472656 247.25 26.46875 C 237.308594 23.371094 226.949219 21.675781 216.609375 20.566406 C 188.34375 17.535156 158.195312 17.9375 130.519531 25.101562 C 126.109375 26.242188 121.476562 27.476562 117.390625 29.546875 C 116.128906 30.1875 117.242188 32.082031 118.496094 31.445312 C 121.632812 29.851562 125.125 28.832031 128.488281 27.859375 C 138.71875 24.902344 149.335938 23.261719 159.921875 22.246094 C 187.578125 19.582031 216.820312 20.003906 243.855469 27.035156 C 248.03125 28.121094 252.421875 29.378906 256.332031 31.128906 C 256.890625 31.378906 257.375 30.617188 256.824219 30.285156 "/><path style=" stroke:none;fill-rule:nonzero;fill:#000000;fill-opacity:1;" d="M 108.214844 80.8125 C 116.179688 85.34375 125.28125 87.757812 134.179688 89.679688 C 145.710938 92.164062 157.546875 93.414062 169.308594 94.121094 C 193.40625 95.5625 218.207031 94.964844 241.914062 90.042969 C 251.300781 88.097656 261.957031 85.628906 269.722656 79.667969 C 270.390625 79.15625 269.820312 78.054688 269.046875 78.503906 C 251.8125 88.449219 230.464844 90.722656 210.980469 92.03125 C 187.003906 93.640625 162.488281 92.890625 138.773438 88.824219 C 128.449219 87.054688 118.011719 84.828125 108.445312 80.421875 C 108.183594 80.296875 107.957031 80.664062 108.214844 80.8125 "/><path style=" stroke:none;fill-rule:nonzero;fill:#000000;fill-opacity:1;" d="M 257.496094 331.097656 C 267.167969 326.972656 276.964844 318.566406 280.277344 308.242188 C 280.542969 307.410156 279.324219 306.929688 278.886719 307.65625 C 276.078125 312.34375 273.691406 316.792969 269.902344 320.84375 C 266.242188 324.746094 261.894531 328.03125 257.210938 330.613281 C 256.882812 330.792969 257.171875 331.238281 257.496094 331.097656 "/><path style=" stroke:none;fill-rule:nonzero;fill:#000000;fill-opacity:1;" d="M 142.933594 337.320312 C 134.4375 335.824219 125.941406 333.597656 118 330.203125 C 114.148438 328.5625 110.441406 326.59375 106.894531 324.367188 C 103.15625 322.015625 99.957031 318.890625 96.222656 316.585938 C 95.335938 316.039062 94.613281 317.21875 95.183594 317.9375 C 100.304688 324.375 109.414062 328.796875 116.882812 331.808594 C 125.226562 335.175781 133.964844 336.808594 142.859375 337.875 C 143.171875 337.914062 143.246094 337.375 142.933594 337.320312 "/><path style=" stroke:none;fill-rule:nonzero;fill:#000000;fill-opacity:1;" d="M 116.84375 48.378906 C 115.484375 49.417969 114.546875 51.414062 113.597656 52.8125 C 112.457031 54.496094 111.390625 56.230469 110.320312 57.957031 C 109.910156 58.617188 110.933594 59.203125 111.347656 58.5625 C 112.421875 56.910156 113.503906 55.257812 114.515625 53.566406 C 115.386719 52.109375 116.847656 50.347656 117.210938 48.664062 C 117.25 48.476562 117.03125 48.234375 116.84375 48.378906 "/><path style=" stroke:none;fill-rule:nonzero;fill:#000000;fill-opacity:1;" d="M 108.15625 62.457031 C 106.996094 64.332031 105.90625 66.25 104.8125 68.167969 C 103.855469 69.851562 102.582031 71.539062 101.972656 73.378906 C 101.835938 73.796875 102.40625 74.109375 102.699219 73.804688 C 104.03125 72.398438 104.820312 70.394531 105.726562 68.699219 C 106.761719 66.753906 107.796875 64.804688 108.90625 62.894531 C 109.1875 62.410156 108.449219 61.980469 108.15625 62.457031 "/><path style=" stroke:none;fill-rule:nonzero;fill:#000000;fill-opacity:1;" d="M 102.488281 81.921875 C 102.039062 109.757812 102.226562 137.621094 102.367188 165.460938 C 102.5625 204.429688 102.683594 243.398438 103.246094 282.359375 C 103.417969 294.335938 103.644531 306.28125 104.3125 318.234375 C 104.359375 319.066406 105.664062 319.074219 105.617188 318.234375 C 105.058594 308.234375 105.308594 298.082031 105.171875 288.066406 C 104.925781 270.285156 104.726562 252.5 104.542969 234.71875 C 104.152344 195.75 103.921875 156.78125 103.460938 117.8125 C 103.320312 105.847656 103.199219 93.875 102.769531 81.921875 C 102.765625 81.738281 102.492188 81.738281 102.488281 81.921875 "/><path style=" stroke:none;fill-rule:nonzero;fill:#000000;fill-opacity:1;" d="M 147.144531 54.75 C 143.601562 64.390625 138.679688 73.386719 132.308594 81.453125 C 131.714844 82.199219 132.757812 83.015625 133.347656 82.253906 C 139.710938 74 144.644531 64.863281 147.898438 54.957031 C 148.054688 54.476562 147.3125 54.28125 147.144531 54.75 "/><path style=" stroke:none;fill-rule:nonzero;fill:#000000;fill-opacity:1;" d="M 129.289062 99.289062 C 128.90625 112.363281 129.46875 125.511719 129.566406 138.59375 C 129.671875 153.207031 129.734375 167.820312 129.777344 182.4375 C 129.851562 206.941406 129.816406 231.453125 129.996094 255.957031 C 130.035156 260.960938 130.117188 265.96875 130.097656 270.972656 C 130.09375 271.851562 131.460938 271.855469 131.464844 270.972656 C 131.632812 228.621094 131.910156 186.292969 131.238281 143.941406 C 131.007812 129.101562 131.21875 114.082031 129.960938 99.289062 C 129.921875 98.863281 129.300781 98.847656 129.289062 99.289062 "/><path style=" stroke:none;fill-rule:nonzero;fill:#000000;fill-opacity:1;" d="M 114.957031 28.4375 C 115.925781 23.898438 122.742188 21.722656 126.457031 20.464844 C 136.929688 16.921875 148.179688 15.480469 159.152344 14.59375 C 175.179688 13.296875 191.382812 13.175781 207.425781 14.257812 C 219.867188 15.097656 232.464844 16.613281 244.457031 20.175781 C 248.355469 21.332031 252.289062 22.6875 255.785156 24.800781 C 256.882812 25.464844 257.988281 26.191406 258.832031 27.175781 C 259.40625 27.839844 259.652344 28.421875 259.660156 28.796875 C 259.734375 31.757812 264.390625 31.753906 264.265625 28.796875 C 264.007812 22.84375 256.394531 19.75 251.761719 17.925781 C 240.425781 13.464844 227.9375 11.742188 215.890625 10.558594 C 198.003906 8.796875 179.789062 8.671875 161.882812 10.191406 C 149.78125 11.214844 137.25 12.710938 125.804688 16.976562 C 121.34375 18.640625 111.917969 22.167969 112.863281 28.4375 C 113.023438 29.507812 114.742188 29.441406 114.957031 28.4375 "/><path style=" stroke:none;fill-rule:nonzero;fill:#000000;fill-opacity:1;" d="M 112.617188 28.34375 C 112.097656 32.207031 111.488281 37.238281 113.527344 40.789062 C 115.777344 44.707031 121.90625 46.566406 125.921875 47.984375 C 138.390625 52.390625 152.257812 53.828125 165.386719 54.609375 C 192.179688 56.214844 220.121094 55.59375 246.097656 48.285156 C 251.207031 46.847656 257.445312 45.039062 261.449219 41.328125 C 264.449219 38.542969 264.226562 34.15625 264.46875 30.382812 C 264.660156 27.4375 260.007812 27.421875 259.867188 30.382812 C 259.722656 33.382812 260.21875 36.785156 257.511719 38.6875 C 253.3125 41.640625 248.058594 43.140625 243.160156 44.453125 C 231.523438 47.574219 219.636719 49.347656 207.625 50.148438 C 184.144531 51.710938 159.378906 51.695312 136.28125 46.789062 C 130.273438 45.511719 124.171875 43.925781 118.761719 40.9375 C 114.054688 38.339844 115.648438 32.554688 114.75 28.050781 C 114.488281 26.738281 112.765625 27.242188 112.617188 28.34375 "/><path style=" stroke:none;fill-rule:nonzero;fill:#000000;fill-opacity:1;" d="M 118.460938 25.714844 C 116.21875 26.839844 115.03125 28.96875 116.492188 31.273438 C 118.175781 33.929688 122.03125 35.242188 124.824219 36.261719 C 135.652344 40.214844 147.714844 41.023438 159.097656 41.941406 C 187.378906 44.21875 216.835938 45.304688 244.226562 36.652344 C 248.246094 35.378906 253.015625 34.332031 256.445312 31.746094 C 258.671875 30.0625 259.472656 26.863281 255.929688 26.199219 C 255.359375 26.09375 255.113281 26.921875 255.691406 27.082031 C 256.609375 27.335938 257.035156 29.078125 256.742188 29.671875 C 256.640625 29.878906 256.214844 30.125 256.0625 30.25 C 255.492188 30.71875 254.816406 31.085938 254.171875 31.425781 C 252.550781 32.289062 250.808594 32.925781 249.074219 33.507812 C 246.441406 34.394531 243.757812 34.988281 241.039062 35.539062 C 229.023438 37.96875 217.054688 39.328125 204.820312 40.011719 C 192.765625 40.683594 180.691406 40.445312 168.640625 39.78125 C 156.542969 39.113281 144.277344 38.386719 132.4375 35.65625 C 129.570312 34.992188 126.707031 34.179688 123.953125 33.140625 C 120.914062 31.996094 116.011719 30.199219 119.117188 26.566406 C 119.519531 26.097656 119.023438 25.433594 118.460938 25.714844 "/><path style=" stroke:none;fill-rule:nonzero;fill:#000000;fill-opacity:1;" d="M 113.585938 42.191406 C 107.601562 50.382812 102.183594 59.027344 97.011719 67.753906 C 95.898438 69.632812 94.027344 71.820312 93.746094 74.035156 C 93.613281 75.105469 93.742188 76.277344 93.742188 77.351562 C 93.707031 93.25 93.65625 109.152344 93.59375 125.050781 C 93.492188 151.011719 93.449219 176.964844 93.445312 202.925781 C 93.4375 227.847656 93.460938 252.773438 93.492188 277.695312 C 93.5 286.359375 93.554688 295.023438 93.625 303.6875 C 93.660156 307.804688 93.429688 312.023438 93.730469 316.128906 C 93.742188 316.3125 93.730469 316.496094 93.730469 316.679688 C 93.742188 320.507812 99.695312 320.515625 99.683594 316.679688 C 99.65625 306.296875 99.789062 295.910156 99.746094 285.527344 C 99.644531 261.679688 99.546875 237.832031 99.410156 213.984375 C 99.257812 187.617188 99.109375 161.25 98.859375 134.890625 C 98.6875 116.957031 98.519531 99.027344 98.382812 81.09375 C 98.371094 79.207031 98.355469 77.320312 98.339844 75.433594 C 98.335938 75.160156 98.472656 74.390625 98.332031 74.152344 C 98.050781 73.683594 97.570312 75.371094 98.269531 74.605469 C 99.421875 73.355469 100.203125 71.277344 101.050781 69.808594 C 102.554688 67.21875 104.03125 64.621094 105.460938 61.988281 C 108.320312 56.714844 111.132812 51.414062 113.765625 46.019531 C 114.238281 45.054688 114.675781 44.070312 115.121094 43.089844 C 115.601562 42.042969 114.265625 41.265625 113.585938 42.191406 "/><g clip-rule="nonzero" clip-path="url(#89f1ceacb7)"><path style=" stroke:none;fill-rule:nonzero;fill:#000000;fill-opacity:1;" d="M 260.703125 40.3125 C 264.847656 49.5 269.660156 58.425781 274.671875 67.171875 C 275.824219 69.183594 276.976562 71.195312 278.128906 73.207031 C 278.371094 73.628906 278.632812 74.378906 278.992188 74.714844 C 279.625 75.300781 278.394531 74.898438 278.871094 73.933594 C 278.570312 74.542969 278.851562 76.042969 278.84375 76.703125 C 278.707031 92.078125 278.546875 107.453125 278.375 122.824219 C 278.09375 148.484375 277.875 174.140625 277.6875 199.800781 C 277.507812 224.460938 277.359375 249.121094 277.214844 273.777344 C 277.167969 282.347656 277.160156 290.914062 277.167969 299.484375 C 277.175781 303.609375 276.917969 307.832031 277.1875 311.953125 C 277.195312 312.136719 277.1875 312.324219 277.1875 312.507812 C 277.167969 316.339844 283.121094 316.34375 283.136719 312.507812 C 283.179688 301.976562 283.390625 291.445312 283.417969 280.914062 C 283.484375 256.875 283.554688 232.835938 283.582031 208.796875 C 283.617188 182.589844 283.648438 156.378906 283.582031 130.171875 C 283.539062 113.125 283.496094 96.082031 283.488281 79.039062 C 283.484375 75.925781 283.765625 73.75 282.171875 71.027344 C 276.390625 61.148438 270.527344 51.324219 264.023438 41.894531 C 263.445312 41.058594 262.839844 40.238281 262.242188 39.414062 C 261.566406 38.476562 260.230469 39.261719 260.703125 40.3125 "/></g><g clip-rule="nonzero" clip-path="url(#0206820acd)"><path style=" stroke:none;fill-rule:nonzero;fill:#000000;fill-opacity:1;" d="M 93.910156 309.890625 C 91.035156 342.339844 135.234375 348.039062 158.378906 350.703125 C 174.726562 352.585938 191.28125 352.867188 207.671875 351.359375 C 223.226562 349.925781 239.535156 347.707031 254.292969 342.390625 C 261.65625 339.734375 268.78125 335.992188 274.265625 330.308594 C 278.996094 325.402344 283.695312 318.386719 283.136719 311.285156 C 282.878906 308 278.332031 307.175781 277.292969 310.496094 C 275.503906 316.199219 273.949219 321.285156 269.707031 325.75 C 265.164062 330.535156 259.328125 333.785156 253.164062 336.015625 C 239.820312 340.851562 225.113281 342.972656 211.042969 344.316406 C 182.773438 347.03125 152.601562 345.800781 125.265625 337.550781 C 112.753906 333.773438 97.703125 324.574219 96.949219 309.890625 C 96.847656 307.914062 94.078125 307.957031 93.910156 309.890625 "/></g><path style=" stroke:none;fill-rule:nonzero;fill:#000000;fill-opacity:1;" d="M 111.816406 338.542969 C 115.238281 348.15625 123.800781 353.8125 133.035156 357.144531 C 143.679688 360.992188 155.480469 362.503906 166.691406 363.636719 C 189.988281 365.996094 214.351562 364.449219 236.953125 358.117188 C 247.789062 355.078125 258.015625 349.644531 263.714844 339.554688 C 265.882812 335.714844 259.75 332.242188 257.863281 336.132812 C 252.457031 347.300781 240.085938 351.03125 228.820312 353.449219 C 215.238281 356.363281 201.375 357.777344 187.484375 357.835938 C 173.828125 357.894531 160.199219 356.535156 146.824219 353.78125 C 134.875 351.324219 123.152344 347.628906 116.621094 336.515625 C 115.160156 334.023438 110.792969 335.660156 111.816406 338.542969 "/><path style=" stroke:none;fill-rule:nonzero;fill:#000000;fill-opacity:1;" d="M 200.230469 347.902344 C 206.949219 343.210938 212.457031 336.625 217.355469 330.160156 C 230.808594 312.398438 238.878906 291.394531 244.230469 269.925781 C 255.382812 225.207031 254.546875 178.210938 241.460938 134.042969 C 237.121094 119.394531 231.921875 105.046875 226.96875 90.601562 C 222.28125 76.929688 214 64.882812 209.453125 51.113281 C 208.765625 49.023438 205.792969 49.882812 206.1875 52.015625 C 208.394531 64.046875 216.101562 74.484375 221.066406 85.46875 C 226.5 97.484375 229.945312 110.707031 233.882812 123.277344 C 240.78125 145.296875 245.496094 167.628906 246.871094 190.679688 C 248.199219 212.996094 246.722656 235.394531 242.453125 257.339844 C 237.96875 280.367188 230.941406 302.640625 218.386719 322.59375 C 213.097656 331 206.714844 339.859375 198.890625 346.164062 C 197.917969 346.945312 199.199219 348.621094 200.230469 347.902344 "/><path style=" stroke:none;fill-rule:nonzero;fill:#000000;fill-opacity:1;" d="M 239.136719 343.863281 C 240.214844 343.648438 241.242188 342.625 241.984375 341.902344 C 245.324219 338.675781 247.445312 334.160156 249.3125 329.996094 C 258.691406 309.125 262.824219 285.425781 264.582031 262.75 C 266.242188 241.371094 265.960938 219.746094 263.769531 198.414062 C 261.449219 175.800781 257.59375 153.011719 252.722656 130.820312 C 251.207031 123.894531 249.347656 117.046875 248.003906 110.082031 C 246.519531 102.394531 245.636719 94.664062 244.800781 86.890625 C 244.058594 79.988281 242.742188 73.179688 241.738281 66.316406 C 240.941406 60.851562 239.855469 54.359375 242.101562 49.09375 C 243.386719 46.074219 239.21875 44.28125 237.933594 47.335938 C 234.210938 56.167969 237.339844 67.152344 238.835938 76.152344 C 240.976562 89.027344 241.808594 102.03125 244.582031 114.816406 C 247.28125 127.265625 250.417969 139.558594 252.652344 152.109375 C 254.835938 164.324219 256.734375 176.601562 258.566406 188.867188 C 261.335938 207.421875 262.078125 226.402344 261.675781 245.136719 C 261.140625 269.742188 258.320312 294.503906 251.226562 318.132812 C 249.050781 325.378906 246.757812 332.777344 242.644531 339.195312 C 241.824219 340.484375 240.5 342.777344 238.976562 343.273438 C 238.601562 343.398438 238.753906 343.933594 239.136719 343.863281 "/><path style=" stroke:none;fill-rule:nonzero;fill:#000000;fill-opacity:1;" d="M 142.539062 39.09375 C 148.84375 34.695312 156.339844 32.386719 163.675781 29.789062 C 169.882812 27.589844 176.835938 27.179688 183.34375 28.050781 C 186.480469 28.46875 196.488281 29.289062 192.722656 34.320312 C 190.664062 37.074219 187.460938 37.839844 184.855469 39.851562 C 182.808594 41.425781 184.972656 44.308594 187.039062 42.683594 C 190.167969 40.214844 193.601562 39.375 195.957031 35.859375 C 197.554688 33.484375 197.972656 30.226562 195.777344 28.050781 C 193.050781 25.347656 187.179688 25.339844 183.558594 24.945312 C 179.125 24.464844 174.484375 24.660156 170.066406 25.285156 C 163.832031 26.167969 157.992188 29.09375 152.3125 31.671875 C 148.625 33.347656 144.417969 35.21875 142.183594 38.734375 C 142.050781 38.949219 142.324219 39.242188 142.539062 39.09375 "/><path style=" stroke:none;fill-rule:nonzero;fill:#000000;fill-opacity:1;" d="M 164.054688 31.285156 C 168.046875 30.085938 172.863281 30.25 176.996094 30.484375 C 177.386719 30.507812 186.183594 31.089844 186.820312 32.113281 C 187.195312 32.714844 184.460938 34.136719 183.523438 34.292969 C 181.785156 34.589844 179.4375 33.722656 177.761719 33.328125 C 173.453125 32.3125 169.097656 30.742188 164.679688 30.3125 C 162.960938 30.148438 162.640625 32.894531 164.277344 33.300781 C 169.980469 34.722656 176.078125 36.441406 181.945312 36.964844 C 183.867188 37.132812 185.160156 36.976562 186.703125 35.753906 C 187.835938 34.859375 189.863281 33.117188 189.382812 31.511719 C 188.710938 29.261719 182.496094 29.128906 180.5 28.871094 C 175.402344 28.21875 168.519531 28.339844 163.769531 30.609375 C 163.386719 30.792969 163.65625 31.40625 164.054688 31.285156 "/><path style=" stroke:none;fill-rule:nonzero;fill:#000000;fill-opacity:1;" d="M 145.640625 39.953125 C 149.265625 40.953125 153.65625 37.707031 157.242188 36.996094 C 159.933594 36.460938 162.269531 37.152344 164.902344 37.757812 C 165.457031 37.886719 177.78125 40.765625 177.777344 40.792969 C 177.582031 42.480469 180.484375 42.886719 180.765625 41.199219 C 181.289062 38.078125 178.644531 37.867188 176.203125 37.320312 C 173.289062 36.671875 170.414062 35.816406 167.511719 35.113281 C 164.949219 34.496094 162.148438 33.546875 159.488281 33.496094 C 157.144531 33.453125 154.730469 34.230469 152.605469 35.125 C 150.242188 36.117188 147.152344 37.160156 145.410156 39.082031 C 145.148438 39.367188 145.246094 39.847656 145.640625 39.953125 "/><path style=" stroke:none;fill-rule:nonzero;fill:#000000;fill-opacity:1;" d="M 183.414062 26.46875 C 183.664062 25.679688 183.335938 25.046875 183.855469 24.304688 C 184.417969 23.503906 185.371094 22.925781 186.21875 22.480469 C 187.917969 21.578125 189.703125 21.449219 191.515625 20.960938 C 192.363281 20.734375 192.488281 19.257812 191.515625 19.117188 C 188.859375 18.730469 185.976562 19.71875 183.960938 21.484375 C 182.640625 22.648438 180.59375 25.371094 182.96875 26.652344 C 183.148438 26.746094 183.355469 26.660156 183.414062 26.46875 "/><path style=" stroke:none;fill-rule:nonzero;fill:#000000;fill-opacity:1;" d="M 196.007812 32.636719 C 203.53125 33.980469 210.691406 31.308594 217.273438 27.847656 C 218.925781 26.976562 225.535156 22.519531 220.617188 20.972656 C 219.507812 20.625 218.476562 22.226562 219.433594 23.007812 C 219.941406 23.421875 212.304688 27.457031 211.558594 27.789062 C 206.777344 29.933594 201.4375 31.933594 196.140625 31.65625 C 195.585938 31.625 195.445312 32.535156 196.007812 32.636719 "/><path style=" stroke:none;fill-rule:nonzero;fill:#ffffff;fill-opacity:1;" d="M 95.976562 225.707031 L 95.976562 214.738281 C 95.976562 206.542969 89.464844 199.828125 81.273438 199.570312 C 73.082031 199.3125 66.574219 192.597656 66.574219 184.402344 L 66.574219 149.292969 C 66.574219 140.15625 73.980469 132.75 83.117188 132.75 L 291.867188 132.75 C 301.003906 132.75 308.410156 140.15625 308.410156 149.292969 L 308.410156 184.40625 C 308.410156 192.601562 301.902344 199.3125 293.714844 199.570312 C 285.523438 199.828125 279.015625 206.542969 279.015625 214.738281 L 279.015625 225.707031 C 279.015625 234.84375 271.609375 242.25 262.472656 242.25 L 112.519531 242.25 C 103.382812 242.25 95.976562 234.84375 95.976562 225.707031 Z M 95.976562 225.707031 "/><g style="fill:#000000;fill-opacity:1;"><g transform="translate(85.541198, 174.566777)"><path style="stroke:none" d="M 1.328125 -31.296875 C 1.546875 -31.296875 1.960938 -31.285156 2.578125 -31.265625 C 3.203125 -31.253906 3.90625 -31.238281 4.6875 -31.21875 C 5.476562 -31.207031 6.300781 -31.1875 7.15625 -31.15625 C 8.007812 -31.125 8.769531 -31.109375 9.4375 -31.109375 C 9.625 -31.109375 10.019531 -31.113281 10.625 -31.125 C 11.226562 -31.144531 11.867188 -31.171875 12.546875 -31.203125 C 13.222656 -31.234375 13.867188 -31.253906 14.484375 -31.265625 C 15.097656 -31.285156 15.519531 -31.296875 15.75 -31.296875 C 17.195312 -31.296875 18.5625 -31.175781 19.84375 -30.9375 C 21.125 -30.707031 22.242188 -30.296875 23.203125 -29.703125 C 24.171875 -29.117188 24.9375 -28.320312 25.5 -27.3125 C 26.070312 -26.300781 26.359375 -25.035156 26.359375 -23.515625 C 26.359375 -21.304688 25.644531 -19.457031 24.21875 -17.96875 C 22.800781 -16.488281 20.65625 -15.601562 17.78125 -15.3125 L 27.734375 -3.890625 C 28.179688 -3.378906 28.539062 -2.988281 28.8125 -2.71875 C 29.082031 -2.457031 29.296875 -2.265625 29.453125 -2.140625 C 29.765625 -1.878906 30.15625 -1.644531 30.625 -1.4375 C 31.101562 -1.238281 31.722656 -1.09375 32.484375 -1 L 32.484375 0.09375 C 32.359375 0.09375 32.128906 0.0820312 31.796875 0.0625 C 31.460938 0.0507812 31.085938 0.0351562 30.671875 0.015625 C 30.265625 0.00390625 29.835938 -0.015625 29.390625 -0.046875 C 28.953125 -0.078125 28.5625 -0.09375 28.21875 -0.09375 C 28.125 -0.09375 27.703125 -0.078125 26.953125 -0.046875 C 26.210938 -0.015625 25.445312 0.03125 24.65625 0.09375 L 14.609375 -12.375 C 14.222656 -12.851562 13.90625 -13.234375 13.65625 -13.515625 C 13.40625 -13.796875 13.148438 -14.007812 12.890625 -14.15625 C 12.640625 -14.300781 12.347656 -14.394531 12.015625 -14.4375 C 11.691406 -14.488281 11.242188 -14.515625 10.671875 -14.515625 L 10.671875 -8.53125 C 10.671875 -7.875 10.675781 -7.21875 10.6875 -6.5625 C 10.707031 -5.914062 10.738281 -5.304688 10.78125 -4.734375 C 10.832031 -4.171875 10.890625 -3.675781 10.953125 -3.25 C 11.015625 -2.820312 11.109375 -2.5 11.234375 -2.28125 C 11.492188 -1.832031 11.867188 -1.503906 12.359375 -1.296875 C 12.847656 -1.097656 13.675781 -1 14.84375 -1 L 15.125 -1 L 15.125 0.09375 C 14.75 0.09375 14.226562 0.0820312 13.5625 0.0625 C 12.894531 0.0507812 12.210938 0.03125 11.515625 0 C 10.828125 -0.03125 10.195312 -0.0507812 9.625 -0.0625 C 9.050781 -0.0820312 8.65625 -0.09375 8.4375 -0.09375 C 8.3125 -0.09375 8.128906 -0.09375 7.890625 -0.09375 C 7.660156 -0.09375 7.296875 -0.0820312 6.796875 -0.0625 C 6.304688 -0.0507812 5.628906 -0.03125 4.765625 0 C 3.898438 0.03125 2.753906 0.0625 1.328125 0.09375 L 1.328125 -1 C 2.523438 -1 3.410156 -1.09375 3.984375 -1.28125 C 4.554688 -1.46875 4.96875 -1.800781 5.21875 -2.28125 C 5.4375 -2.6875 5.582031 -3.4375 5.65625 -4.53125 C 5.738281 -5.625 5.78125 -6.957031 5.78125 -8.53125 L 5.78125 -22.671875 C 5.78125 -24.316406 5.738281 -25.695312 5.65625 -26.8125 C 5.582031 -27.9375 5.421875 -28.671875 5.171875 -29.015625 C 5.046875 -29.210938 4.910156 -29.378906 4.765625 -29.515625 C 4.617188 -29.660156 4.40625 -29.785156 4.125 -29.890625 C 3.84375 -30.003906 3.476562 -30.082031 3.03125 -30.125 C 2.59375 -30.175781 2.023438 -30.203125 1.328125 -30.203125 Z M 10.671875 -15.796875 L 12.234375 -15.796875 C 13.753906 -15.796875 15.066406 -15.90625 16.171875 -16.125 C 17.273438 -16.34375 18.175781 -16.71875 18.875 -17.25 C 19.570312 -17.789062 20.082031 -18.503906 20.40625 -19.390625 C 20.738281 -20.273438 20.90625 -21.398438 20.90625 -22.765625 C 20.90625 -23.960938 20.734375 -25.019531 20.390625 -25.9375 C 20.046875 -26.851562 19.570312 -27.597656 18.96875 -28.171875 C 18.332031 -28.734375 17.648438 -29.164062 16.921875 -29.46875 C 16.203125 -29.769531 15.207031 -29.921875 13.9375 -29.921875 C 12.675781 -29.921875 11.851562 -29.878906 11.46875 -29.796875 C 11.09375 -29.722656 10.875 -29.609375 10.8125 -29.453125 C 10.71875 -29.265625 10.671875 -28.851562 10.671875 -28.21875 Z M 10.671875 -15.796875 "/></g></g><g style="fill:#000000;fill-opacity:1;"><g transform="translate(116.837215, 174.566777)"><path style="stroke:none" d="M 1.234375 -31.296875 C 1.929688 -31.296875 2.695312 -31.28125 3.53125 -31.25 C 4.375 -31.21875 5.195312 -31.191406 6 -31.171875 C 6.800781 -31.160156 7.539062 -31.144531 8.21875 -31.125 C 8.90625 -31.113281 9.4375 -31.109375 9.8125 -31.109375 C 10.101562 -31.109375 10.609375 -31.109375 11.328125 -31.109375 C 12.054688 -31.109375 12.882812 -31.113281 13.8125 -31.125 C 14.75 -31.144531 15.753906 -31.160156 16.828125 -31.171875 C 17.910156 -31.191406 18.957031 -31.207031 19.96875 -31.21875 C 20.976562 -31.238281 21.910156 -31.253906 22.765625 -31.265625 C 23.617188 -31.285156 24.296875 -31.296875 24.796875 -31.296875 L 24.796875 -24.140625 L 23.71875 -24.140625 C 23.488281 -25.691406 23.09375 -26.890625 22.53125 -27.734375 C 21.988281 -28.554688 21.242188 -29.140625 20.296875 -29.484375 C 19.347656 -29.835938 17.847656 -30.015625 15.796875 -30.015625 L 11.234375 -30.015625 C 10.859375 -30.015625 10.671875 -29.875 10.671875 -29.59375 L 10.671875 -16.828125 L 11.46875 -16.828125 C 12.832031 -16.828125 13.945312 -16.953125 14.8125 -17.203125 C 15.6875 -17.460938 16.367188 -17.835938 16.859375 -18.328125 C 17.347656 -18.816406 17.703125 -19.425781 17.921875 -20.15625 C 18.140625 -20.882812 18.300781 -21.722656 18.40625 -22.671875 L 19.484375 -22.671875 C 19.484375 -22.347656 19.472656 -21.925781 19.453125 -21.40625 C 19.441406 -20.882812 19.425781 -20.320312 19.40625 -19.71875 C 19.394531 -19.125 19.375 -18.519531 19.34375 -17.90625 C 19.3125 -17.289062 19.296875 -16.726562 19.296875 -16.21875 C 19.296875 -16 19.3125 -15.453125 19.34375 -14.578125 C 19.375 -13.710938 19.421875 -12.300781 19.484375 -10.34375 L 18.40625 -10.34375 C 18.238281 -11.414062 18.003906 -12.289062 17.703125 -12.96875 C 17.410156 -13.644531 16.988281 -14.171875 16.4375 -14.546875 C 15.882812 -14.929688 15.179688 -15.191406 14.328125 -15.328125 C 13.472656 -15.472656 12.410156 -15.546875 11.140625 -15.546875 L 10.671875 -15.546875 L 10.671875 -7.15625 C 10.671875 -6.050781 10.75 -5.117188 10.90625 -4.359375 C 11.0625 -3.597656 11.375 -2.976562 11.84375 -2.5 C 12.320312 -2.03125 12.992188 -1.691406 13.859375 -1.484375 C 14.734375 -1.285156 15.882812 -1.1875 17.3125 -1.1875 C 18.988281 -1.1875 20.378906 -1.300781 21.484375 -1.53125 C 22.585938 -1.769531 23.472656 -2.144531 24.140625 -2.65625 C 24.804688 -3.164062 25.300781 -3.828125 25.625 -4.640625 C 25.957031 -5.460938 26.203125 -6.460938 26.359375 -7.640625 L 27.453125 -7.640625 L 27.03125 0.09375 C 26.613281 0.09375 25.988281 0.0820312 25.15625 0.0625 C 24.320312 0.0507812 23.378906 0.046875 22.328125 0.046875 C 21.285156 0.046875 20.171875 0.03125 18.984375 0 C 17.804688 -0.03125 16.675781 -0.046875 15.59375 -0.046875 C 14.519531 -0.046875 13.546875 -0.0507812 12.671875 -0.0625 C 11.804688 -0.0820312 11.140625 -0.09375 10.671875 -0.09375 C 10.484375 -0.09375 10.238281 -0.09375 9.9375 -0.09375 C 9.632812 -0.09375 9.140625 -0.0820312 8.453125 -0.0625 C 7.773438 -0.0507812 6.859375 -0.03125 5.703125 0 C 4.554688 0.03125 3.066406 0.0625 1.234375 0.09375 L 1.234375 -1 L 1.609375 -1 C 2.773438 -1 3.601562 -1.113281 4.09375 -1.34375 C 4.59375 -1.582031 4.953125 -1.894531 5.171875 -2.28125 C 5.421875 -2.71875 5.582031 -3.53125 5.65625 -4.71875 C 5.738281 -5.90625 5.78125 -7.175781 5.78125 -8.53125 L 5.78125 -22.671875 C 5.78125 -23.265625 5.78125 -23.847656 5.78125 -24.421875 C 5.78125 -24.992188 5.75 -25.578125 5.6875 -26.171875 C 5.625 -26.898438 5.546875 -27.515625 5.453125 -28.015625 C 5.359375 -28.523438 5.160156 -28.929688 4.859375 -29.234375 C 4.554688 -29.535156 4.132812 -29.753906 3.59375 -29.890625 C 3.0625 -30.035156 2.351562 -30.109375 1.46875 -30.109375 L 1.234375 -30.109375 Z M 1.234375 -31.296875 "/></g></g><g style="fill:#000000;fill-opacity:1;"><g transform="translate(146.236503, 174.566777)"><path style="stroke:none" d="M 0.90625 -31.296875 C 2.320312 -31.265625 3.691406 -31.234375 5.015625 -31.203125 C 6.347656 -31.171875 7.851562 -31.140625 9.53125 -31.109375 C 9.71875 -31.109375 9.984375 -31.109375 10.328125 -31.109375 C 10.679688 -31.109375 11.363281 -31.113281 12.375 -31.125 C 13.382812 -31.144531 14.84375 -31.160156 16.75 -31.171875 C 18.664062 -31.191406 21.285156 -31.234375 24.609375 -31.296875 L 25.375 -23.859375 L 24.28125 -23.859375 C 23.9375 -25.210938 23.566406 -26.242188 23.171875 -26.953125 C 22.773438 -27.671875 22.210938 -28.21875 21.484375 -28.59375 C 21.097656 -28.78125 20.707031 -28.9375 20.3125 -29.0625 C 19.925781 -29.195312 19.460938 -29.3125 18.921875 -29.40625 C 18.378906 -29.5 17.738281 -29.5625 17 -29.59375 C 16.257812 -29.625 15.367188 -29.640625 14.328125 -29.640625 L 12.328125 -29.640625 C 11.316406 -29.640625 10.75 -29.53125 10.625 -29.3125 C 10.4375 -29.019531 10.34375 -28.320312 10.34375 -27.21875 L 10.34375 -16.359375 L 11.328125 -16.359375 C 12.691406 -16.359375 13.789062 -16.5 14.625 -16.78125 C 15.46875 -17.070312 16.132812 -17.460938 16.625 -17.953125 C 17.113281 -18.441406 17.457031 -19.039062 17.65625 -19.75 C 17.863281 -20.457031 18 -21.238281 18.0625 -22.09375 L 19.15625 -22.09375 C 19.15625 -21.875 19.144531 -21.441406 19.125 -20.796875 C 19.113281 -20.148438 19.09375 -19.460938 19.0625 -18.734375 C 19.03125 -18.003906 19.003906 -17.332031 18.984375 -16.71875 C 18.972656 -16.101562 18.96875 -15.75 18.96875 -15.65625 C 18.96875 -15.519531 18.984375 -14.976562 19.015625 -14.03125 C 19.046875 -13.082031 19.09375 -11.660156 19.15625 -9.765625 L 18.0625 -9.765625 C 17.875 -11.128906 17.546875 -12.175781 17.078125 -12.90625 C 16.816406 -13.25 16.535156 -13.546875 16.234375 -13.796875 C 15.941406 -14.046875 15.566406 -14.25 15.109375 -14.40625 C 14.648438 -14.570312 14.078125 -14.6875 13.390625 -14.75 C 12.710938 -14.8125 11.882812 -14.84375 10.90625 -14.84375 L 10.34375 -14.84375 L 10.34375 -8.15625 C 10.34375 -7.019531 10.363281 -6.070312 10.40625 -5.3125 C 10.457031 -4.550781 10.519531 -3.929688 10.59375 -3.453125 C 10.675781 -2.984375 10.78125 -2.617188 10.90625 -2.359375 C 11.03125 -2.109375 11.171875 -1.921875 11.328125 -1.796875 C 11.492188 -1.640625 11.660156 -1.515625 11.828125 -1.421875 C 12.003906 -1.328125 12.242188 -1.25 12.546875 -1.1875 C 12.847656 -1.125 13.226562 -1.078125 13.6875 -1.046875 C 14.144531 -1.015625 14.75 -1 15.5 -1 L 15.5 0.09375 C 14.90625 0.09375 14.226562 0.078125 13.46875 0.046875 C 12.707031 0.015625 11.972656 -0.00390625 11.265625 -0.015625 C 10.554688 -0.0351562 9.914062 -0.0507812 9.34375 -0.0625 C 8.769531 -0.0820312 8.390625 -0.09375 8.203125 -0.09375 C 8.015625 -0.09375 7.644531 -0.0820312 7.09375 -0.0625 C 6.539062 -0.0507812 5.90625 -0.0351562 5.1875 -0.015625 C 4.476562 -0.00390625 3.734375 0.015625 2.953125 0.046875 C 2.179688 0.078125 1.5 0.09375 0.90625 0.09375 L 0.90625 -1 C 1.5625 -1 2.109375 -1.019531 2.546875 -1.0625 C 2.992188 -1.113281 3.359375 -1.191406 3.640625 -1.296875 C 3.929688 -1.410156 4.15625 -1.546875 4.3125 -1.703125 C 4.46875 -1.859375 4.628906 -2.035156 4.796875 -2.234375 C 5.078125 -2.640625 5.253906 -3.453125 5.328125 -4.671875 C 5.410156 -5.890625 5.453125 -7.175781 5.453125 -8.53125 L 5.453125 -22.671875 C 5.453125 -24.148438 5.410156 -25.457031 5.328125 -26.59375 C 5.253906 -27.738281 5.078125 -28.53125 4.796875 -28.96875 C 4.503906 -29.414062 4.097656 -29.734375 3.578125 -29.921875 C 3.054688 -30.109375 2.164062 -30.203125 0.90625 -30.203125 Z M 0.90625 -31.296875 "/></g></g><g style="fill:#000000;fill-opacity:1;"><g transform="translate(171.842335, 174.566777)"><path style="stroke:none" d="M 1.328125 -31.296875 C 1.546875 -31.296875 1.960938 -31.285156 2.578125 -31.265625 C 3.203125 -31.253906 3.90625 -31.238281 4.6875 -31.21875 C 5.476562 -31.207031 6.300781 -31.1875 7.15625 -31.15625 C 8.007812 -31.125 8.769531 -31.109375 9.4375 -31.109375 C 9.625 -31.109375 10.019531 -31.113281 10.625 -31.125 C 11.226562 -31.144531 11.867188 -31.171875 12.546875 -31.203125 C 13.222656 -31.234375 13.867188 -31.253906 14.484375 -31.265625 C 15.097656 -31.285156 15.519531 -31.296875 15.75 -31.296875 C 17.195312 -31.296875 18.5625 -31.175781 19.84375 -30.9375 C 21.125 -30.707031 22.242188 -30.296875 23.203125 -29.703125 C 24.171875 -29.117188 24.9375 -28.320312 25.5 -27.3125 C 26.070312 -26.300781 26.359375 -25.035156 26.359375 -23.515625 C 26.359375 -21.304688 25.644531 -19.457031 24.21875 -17.96875 C 22.800781 -16.488281 20.65625 -15.601562 17.78125 -15.3125 L 27.734375 -3.890625 C 28.179688 -3.378906 28.539062 -2.988281 28.8125 -2.71875 C 29.082031 -2.457031 29.296875 -2.265625 29.453125 -2.140625 C 29.765625 -1.878906 30.15625 -1.644531 30.625 -1.4375 C 31.101562 -1.238281 31.722656 -1.09375 32.484375 -1 L 32.484375 0.09375 C 32.359375 0.09375 32.128906 0.0820312 31.796875 0.0625 C 31.460938 0.0507812 31.085938 0.0351562 30.671875 0.015625 C 30.265625 0.00390625 29.835938 -0.015625 29.390625 -0.046875 C 28.953125 -0.078125 28.5625 -0.09375 28.21875 -0.09375 C 28.125 -0.09375 27.703125 -0.078125 26.953125 -0.046875 C 26.210938 -0.015625 25.445312 0.03125 24.65625 0.09375 L 14.609375 -12.375 C 14.222656 -12.851562 13.90625 -13.234375 13.65625 -13.515625 C 13.40625 -13.796875 13.148438 -14.007812 12.890625 -14.15625 C 12.640625 -14.300781 12.347656 -14.394531 12.015625 -14.4375 C 11.691406 -14.488281 11.242188 -14.515625 10.671875 -14.515625 L 10.671875 -8.53125 C 10.671875 -7.875 10.675781 -7.21875 10.6875 -6.5625 C 10.707031 -5.914062 10.738281 -5.304688 10.78125 -4.734375 C 10.832031 -4.171875 10.890625 -3.675781 10.953125 -3.25 C 11.015625 -2.820312 11.109375 -2.5 11.234375 -2.28125 C 11.492188 -1.832031 11.867188 -1.503906 12.359375 -1.296875 C 12.847656 -1.097656 13.675781 -1 14.84375 -1 L 15.125 -1 L 15.125 0.09375 C 14.75 0.09375 14.226562 0.0820312 13.5625 0.0625 C 12.894531 0.0507812 12.210938 0.03125 11.515625 0 C 10.828125 -0.03125 10.195312 -0.0507812 9.625 -0.0625 C 9.050781 -0.0820312 8.65625 -0.09375 8.4375 -0.09375 C 8.3125 -0.09375 8.128906 -0.09375 7.890625 -0.09375 C 7.660156 -0.09375 7.296875 -0.0820312 6.796875 -0.0625 C 6.304688 -0.0507812 5.628906 -0.03125 4.765625 0 C 3.898438 0.03125 2.753906 0.0625 1.328125 0.09375 L 1.328125 -1 C 2.523438 -1 3.410156 -1.09375 3.984375 -1.28125 C 4.554688 -1.46875 4.96875 -1.800781 5.21875 -2.28125 C 5.4375 -2.6875 5.582031 -3.4375 5.65625 -4.53125 C 5.738281 -5.625 5.78125 -6.957031 5.78125 -8.53125 L 5.78125 -22.671875 C 5.78125 -24.316406 5.738281 -25.695312 5.65625 -26.8125 C 5.582031 -27.9375 5.421875 -28.671875 5.171875 -29.015625 C 5.046875 -29.210938 4.910156 -29.378906 4.765625 -29.515625 C 4.617188 -29.660156 4.40625 -29.785156 4.125 -29.890625 C 3.84375 -30.003906 3.476562 -30.082031 3.03125 -30.125 C 2.59375 -30.175781 2.023438 -30.203125 1.328125 -30.203125 Z M 10.671875 -15.796875 L 12.234375 -15.796875 C 13.753906 -15.796875 15.066406 -15.90625 16.171875 -16.125 C 17.273438 -16.34375 18.175781 -16.71875 18.875 -17.25 C 19.570312 -17.789062 20.082031 -18.503906 20.40625 -19.390625 C 20.738281 -20.273438 20.90625 -21.398438 20.90625 -22.765625 C 20.90625 -23.960938 20.734375 -25.019531 20.390625 -25.9375 C 20.046875 -26.851562 19.570312 -27.597656 18.96875 -28.171875 C 18.332031 -28.734375 17.648438 -29.164062 16.921875 -29.46875 C 16.203125 -29.769531 15.207031 -29.921875 13.9375 -29.921875 C 12.675781 -29.921875 11.851562 -29.878906 11.46875 -29.796875 C 11.09375 -29.722656 10.875 -29.609375 10.8125 -29.453125 C 10.71875 -29.265625 10.671875 -28.851562 10.671875 -28.21875 Z M 10.671875 -15.796875 "/></g></g><g style="fill:#000000;fill-opacity:1;"><g transform="translate(203.138351, 174.566777)"><path style="stroke:none" d="M 1.234375 -31.296875 C 1.929688 -31.296875 2.695312 -31.28125 3.53125 -31.25 C 4.375 -31.21875 5.195312 -31.191406 6 -31.171875 C 6.800781 -31.160156 7.539062 -31.144531 8.21875 -31.125 C 8.90625 -31.113281 9.4375 -31.109375 9.8125 -31.109375 C 10.101562 -31.109375 10.609375 -31.109375 11.328125 -31.109375 C 12.054688 -31.109375 12.882812 -31.113281 13.8125 -31.125 C 14.75 -31.144531 15.753906 -31.160156 16.828125 -31.171875 C 17.910156 -31.191406 18.957031 -31.207031 19.96875 -31.21875 C 20.976562 -31.238281 21.910156 -31.253906 22.765625 -31.265625 C 23.617188 -31.285156 24.296875 -31.296875 24.796875 -31.296875 L 24.796875 -24.140625 L 23.71875 -24.140625 C 23.488281 -25.691406 23.09375 -26.890625 22.53125 -27.734375 C 21.988281 -28.554688 21.242188 -29.140625 20.296875 -29.484375 C 19.347656 -29.835938 17.847656 -30.015625 15.796875 -30.015625 L 11.234375 -30.015625 C 10.859375 -30.015625 10.671875 -29.875 10.671875 -29.59375 L 10.671875 -16.828125 L 11.46875 -16.828125 C 12.832031 -16.828125 13.945312 -16.953125 14.8125 -17.203125 C 15.6875 -17.460938 16.367188 -17.835938 16.859375 -18.328125 C 17.347656 -18.816406 17.703125 -19.425781 17.921875 -20.15625 C 18.140625 -20.882812 18.300781 -21.722656 18.40625 -22.671875 L 19.484375 -22.671875 C 19.484375 -22.347656 19.472656 -21.925781 19.453125 -21.40625 C 19.441406 -20.882812 19.425781 -20.320312 19.40625 -19.71875 C 19.394531 -19.125 19.375 -18.519531 19.34375 -17.90625 C 19.3125 -17.289062 19.296875 -16.726562 19.296875 -16.21875 C 19.296875 -16 19.3125 -15.453125 19.34375 -14.578125 C 19.375 -13.710938 19.421875 -12.300781 19.484375 -10.34375 L 18.40625 -10.34375 C 18.238281 -11.414062 18.003906 -12.289062 17.703125 -12.96875 C 17.410156 -13.644531 16.988281 -14.171875 16.4375 -14.546875 C 15.882812 -14.929688 15.179688 -15.191406 14.328125 -15.328125 C 13.472656 -15.472656 12.410156 -15.546875 11.140625 -15.546875 L 10.671875 -15.546875 L 10.671875 -7.15625 C 10.671875 -6.050781 10.75 -5.117188 10.90625 -4.359375 C 11.0625 -3.597656 11.375 -2.976562 11.84375 -2.5 C 12.320312 -2.03125 12.992188 -1.691406 13.859375 -1.484375 C 14.734375 -1.285156 15.882812 -1.1875 17.3125 -1.1875 C 18.988281 -1.1875 20.378906 -1.300781 21.484375 -1.53125 C 22.585938 -1.769531 23.472656 -2.144531 24.140625 -2.65625 C 24.804688 -3.164062 25.300781 -3.828125 25.625 -4.640625 C 25.957031 -5.460938 26.203125 -6.460938 26.359375 -7.640625 L 27.453125 -7.640625 L 27.03125 0.09375 C 26.613281 0.09375 25.988281 0.0820312 25.15625 0.0625 C 24.320312 0.0507812 23.378906 0.046875 22.328125 0.046875 C 21.285156 0.046875 20.171875 0.03125 18.984375 0 C 17.804688 -0.03125 16.675781 -0.046875 15.59375 -0.046875 C 14.519531 -0.046875 13.546875 -0.0507812 12.671875 -0.0625 C 11.804688 -0.0820312 11.140625 -0.09375 10.671875 -0.09375 C 10.484375 -0.09375 10.238281 -0.09375 9.9375 -0.09375 C 9.632812 -0.09375 9.140625 -0.0820312 8.453125 -0.0625 C 7.773438 -0.0507812 6.859375 -0.03125 5.703125 0 C 4.554688 0.03125 3.066406 0.0625 1.234375 0.09375 L 1.234375 -1 L 1.609375 -1 C 2.773438 -1 3.601562 -1.113281 4.09375 -1.34375 C 4.59375 -1.582031 4.953125 -1.894531 5.171875 -2.28125 C 5.421875 -2.71875 5.582031 -3.53125 5.65625 -4.71875 C 5.738281 -5.90625 5.78125 -7.175781 5.78125 -8.53125 L 5.78125 -22.671875 C 5.78125 -23.265625 5.78125 -23.847656 5.78125 -24.421875 C 5.78125 -24.992188 5.75 -25.578125 5.6875 -26.171875 C 5.625 -26.898438 5.546875 -27.515625 5.453125 -28.015625 C 5.359375 -28.523438 5.160156 -28.929688 4.859375 -29.234375 C 4.554688 -29.535156 4.132812 -29.753906 3.59375 -29.890625 C 3.0625 -30.035156 2.351562 -30.109375 1.46875 -30.109375 L 1.234375 -30.109375 Z M 1.234375 -31.296875 "/></g></g><g style="fill:#000000;fill-opacity:1;"><g transform="translate(232.537639, 174.566777)"><path style="stroke:none" d="M 12.234375 -31.875 C 13.566406 -31.875 14.820312 -31.660156 16 -31.234375 C 17.1875 -30.804688 18.316406 -30.210938 19.390625 -29.453125 L 20.484375 -31.296875 L 21.015625 -31.296875 L 21.25 -23.09375 L 20.15625 -23.09375 C 19.425781 -25.65625 18.394531 -27.546875 17.0625 -28.765625 C 15.738281 -29.984375 14.128906 -30.59375 12.234375 -30.59375 C 10.617188 -30.59375 9.289062 -30.132812 8.25 -29.21875 C 7.207031 -28.300781 6.6875 -27.082031 6.6875 -25.5625 C 6.6875 -24.039062 7.179688 -22.84375 8.171875 -21.96875 C 9.171875 -21.101562 10.429688 -20.359375 11.953125 -19.734375 C 13.691406 -19.003906 15.269531 -18.289062 16.6875 -17.59375 C 18.113281 -16.894531 19.320312 -16.117188 20.3125 -15.265625 C 21.3125 -14.410156 22.078125 -13.4375 22.609375 -12.34375 C 23.148438 -11.257812 23.421875 -9.972656 23.421875 -8.484375 C 23.421875 -7.035156 23.101562 -5.738281 22.46875 -4.59375 C 21.84375 -3.457031 21.007812 -2.5 19.96875 -1.71875 C 18.925781 -0.945312 17.734375 -0.367188 16.390625 0.015625 C 15.046875 0.410156 13.660156 0.609375 12.234375 0.609375 C 10.523438 0.609375 9.03125 0.390625 7.75 -0.046875 C 6.46875 -0.492188 5.148438 -1.222656 3.796875 -2.234375 L 2.65625 -0.234375 L 2.140625 -0.234375 L 2.140625 -9.484375 L 3.21875 -9.484375 C 3.789062 -6.609375 4.832031 -4.414062 6.34375 -2.90625 C 7.863281 -1.40625 9.8125 -0.65625 12.1875 -0.65625 C 14.207031 -0.65625 15.84375 -1.191406 17.09375 -2.265625 C 18.34375 -3.347656 18.96875 -4.789062 18.96875 -6.59375 C 18.96875 -7.125 18.90625 -7.660156 18.78125 -8.203125 C 18.65625 -8.742188 18.445312 -9.234375 18.15625 -9.671875 C 17.875 -10.085938 17.570312 -10.472656 17.25 -10.828125 C 16.9375 -11.191406 16.523438 -11.546875 16.015625 -11.890625 C 15.515625 -12.242188 14.894531 -12.59375 14.15625 -12.9375 C 13.414062 -13.289062 12.488281 -13.6875 11.375 -14.125 C 8.34375 -15.300781 6.160156 -16.613281 4.828125 -18.0625 C 3.503906 -19.519531 2.84375 -21.273438 2.84375 -23.328125 C 2.84375 -24.628906 3.078125 -25.800781 3.546875 -26.84375 C 4.023438 -27.882812 4.675781 -28.773438 5.5 -29.515625 C 6.320312 -30.265625 7.3125 -30.84375 8.46875 -31.25 C 9.625 -31.664062 10.878906 -31.875 12.234375 -31.875 Z M 12.234375 -31.875 "/></g></g><g style="fill:#000000;fill-opacity:1;"><g transform="translate(257.195092, 174.566777)"><path style="stroke:none" d="M 18.828125 -31.875 C 19.710938 -31.875 20.554688 -31.820312 21.359375 -31.71875 C 22.171875 -31.625 22.953125 -31.457031 23.703125 -31.21875 C 24.460938 -30.988281 25.226562 -30.679688 26 -30.296875 C 26.78125 -29.921875 27.597656 -29.460938 28.453125 -28.921875 L 29.21875 -31.15625 L 29.921875 -31.15625 L 30.296875 -21.8125 L 29.21875 -21.8125 C 28.738281 -24.6875 27.585938 -26.898438 25.765625 -28.453125 C 23.953125 -30.003906 21.703125 -30.78125 19.015625 -30.78125 C 17.304688 -30.78125 15.78125 -30.414062 14.4375 -29.6875 C 13.09375 -28.957031 11.953125 -27.910156 11.015625 -26.546875 C 10.085938 -25.191406 9.378906 -23.566406 8.890625 -21.671875 C 8.398438 -19.773438 8.15625 -17.640625 8.15625 -15.265625 C 8.15625 -12.992188 8.40625 -10.941406 8.90625 -9.109375 C 9.414062 -7.273438 10.144531 -5.71875 11.09375 -4.4375 C 12.039062 -3.15625 13.1875 -2.171875 14.53125 -1.484375 C 15.875 -0.804688 17.382812 -0.46875 19.0625 -0.46875 C 20.394531 -0.46875 21.613281 -0.640625 22.71875 -0.984375 C 23.820312 -1.335938 24.816406 -1.914062 25.703125 -2.71875 C 26.585938 -3.53125 27.367188 -4.597656 28.046875 -5.921875 C 28.722656 -7.253906 29.300781 -8.914062 29.78125 -10.90625 L 30.640625 -10.90625 L 30.640625 -0.515625 L 30.015625 -0.515625 L 28.875 -2.9375 C 27.457031 -1.800781 25.914062 -0.925781 24.25 -0.3125 C 22.59375 0.300781 20.628906 0.609375 18.359375 0.609375 C 15.921875 0.609375 13.703125 0.222656 11.703125 -0.546875 C 9.710938 -1.316406 8.015625 -2.390625 6.609375 -3.765625 C 5.203125 -5.140625 4.117188 -6.789062 3.359375 -8.71875 C 2.609375 -10.65625 2.234375 -12.773438 2.234375 -15.078125 C 2.234375 -17.546875 2.640625 -19.804688 3.453125 -21.859375 C 4.273438 -23.910156 5.421875 -25.679688 6.890625 -27.171875 C 8.367188 -28.660156 10.125 -29.816406 12.15625 -30.640625 C 14.195312 -31.460938 16.421875 -31.875 18.828125 -31.875 Z M 18.828125 -31.875 "/></g></g><g style="fill:#000000;fill-opacity:1;"><g transform="translate(114.94396, 217.246249)"><path style="stroke:none" d="M 19.625 -31.875 C 21.96875 -31.875 24.175781 -31.460938 26.25 -30.640625 C 28.320312 -29.816406 30.125 -28.6875 31.65625 -27.25 C 33.1875 -25.8125 34.398438 -24.125 35.296875 -22.1875 C 36.203125 -20.257812 36.65625 -18.191406 36.65625 -15.984375 C 36.65625 -13.453125 36.203125 -11.164062 35.296875 -9.125 C 34.398438 -7.082031 33.171875 -5.34375 31.609375 -3.90625 C 30.046875 -2.46875 28.226562 -1.351562 26.15625 -0.5625 C 24.082031 0.21875 21.890625 0.609375 19.578125 0.609375 C 17.304688 0.609375 15.125 0.238281 13.03125 -0.5 C 10.945312 -1.238281 9.097656 -2.3125 7.484375 -3.71875 C 5.878906 -5.125 4.601562 -6.832031 3.65625 -8.84375 C 2.707031 -10.851562 2.234375 -13.125 2.234375 -15.65625 C 2.234375 -17.832031 2.691406 -19.90625 3.609375 -21.875 C 4.523438 -23.851562 5.769531 -25.578125 7.34375 -27.046875 C 8.925781 -28.523438 10.769531 -29.695312 12.875 -30.5625 C 14.976562 -31.4375 17.226562 -31.875 19.625 -31.875 Z M 8.15625 -15.546875 C 8.15625 -13.367188 8.390625 -11.367188 8.859375 -9.546875 C 9.335938 -7.734375 10.054688 -6.160156 11.015625 -4.828125 C 11.984375 -3.503906 13.191406 -2.476562 14.640625 -1.75 C 16.097656 -1.019531 17.828125 -0.65625 19.828125 -0.65625 C 21.566406 -0.65625 23.113281 -1.007812 24.46875 -1.71875 C 25.832031 -2.4375 26.972656 -3.441406 27.890625 -4.734375 C 28.804688 -6.035156 29.507812 -7.609375 30 -9.453125 C 30.488281 -11.304688 30.734375 -13.375 30.734375 -15.65625 C 30.734375 -17.613281 30.507812 -19.492188 30.0625 -21.296875 C 29.625 -23.097656 28.945312 -24.6875 28.03125 -26.0625 C 27.113281 -27.4375 25.929688 -28.535156 24.484375 -29.359375 C 23.046875 -30.179688 21.316406 -30.59375 19.296875 -30.59375 C 17.554688 -30.59375 16 -30.203125 14.625 -29.421875 C 13.25 -28.648438 12.078125 -27.59375 11.109375 -26.25 C 10.148438 -24.90625 9.414062 -23.316406 8.90625 -21.484375 C 8.40625 -19.648438 8.15625 -17.671875 8.15625 -15.546875 Z M 8.15625 -15.546875 "/></g></g><g style="fill:#000000;fill-opacity:1;"><g transform="translate(153.826888, 217.246249)"><path style="stroke:none" d=""/></g></g><g style="fill:#000000;fill-opacity:1;"><g transform="translate(166.155624, 217.246249)"><path style="stroke:none" d="M 12.234375 -31.875 C 13.566406 -31.875 14.820312 -31.660156 16 -31.234375 C 17.1875 -30.804688 18.316406 -30.210938 19.390625 -29.453125 L 20.484375 -31.296875 L 21.015625 -31.296875 L 21.25 -23.09375 L 20.15625 -23.09375 C 19.425781 -25.65625 18.394531 -27.546875 17.0625 -28.765625 C 15.738281 -29.984375 14.128906 -30.59375 12.234375 -30.59375 C 10.617188 -30.59375 9.289062 -30.132812 8.25 -29.21875 C 7.207031 -28.300781 6.6875 -27.082031 6.6875 -25.5625 C 6.6875 -24.039062 7.179688 -22.84375 8.171875 -21.96875 C 9.171875 -21.101562 10.429688 -20.359375 11.953125 -19.734375 C 13.691406 -19.003906 15.269531 -18.289062 16.6875 -17.59375 C 18.113281 -16.894531 19.320312 -16.117188 20.3125 -15.265625 C 21.3125 -14.410156 22.078125 -13.4375 22.609375 -12.34375 C 23.148438 -11.257812 23.421875 -9.972656 23.421875 -8.484375 C 23.421875 -7.035156 23.101562 -5.738281 22.46875 -4.59375 C 21.84375 -3.457031 21.007812 -2.5 19.96875 -1.71875 C 18.925781 -0.945312 17.734375 -0.367188 16.390625 0.015625 C 15.046875 0.410156 13.660156 0.609375 12.234375 0.609375 C 10.523438 0.609375 9.03125 0.390625 7.75 -0.046875 C 6.46875 -0.492188 5.148438 -1.222656 3.796875 -2.234375 L 2.65625 -0.234375 L 2.140625 -0.234375 L 2.140625 -9.484375 L 3.21875 -9.484375 C 3.789062 -6.609375 4.832031 -4.414062 6.34375 -2.90625 C 7.863281 -1.40625 9.8125 -0.65625 12.1875 -0.65625 C 14.207031 -0.65625 15.84375 -1.191406 17.09375 -2.265625 C 18.34375 -3.347656 18.96875 -4.789062 18.96875 -6.59375 C 18.96875 -7.125 18.90625 -7.660156 18.78125 -8.203125 C 18.65625 -8.742188 18.445312 -9.234375 18.15625 -9.671875 C 17.875 -10.085938 17.570312 -10.472656 17.25 -10.828125 C 16.9375 -11.191406 16.523438 -11.546875 16.015625 -11.890625 C 15.515625 -12.242188 14.894531 -12.59375 14.15625 -12.9375 C 13.414062 -13.289062 12.488281 -13.6875 11.375 -14.125 C 8.34375 -15.300781 6.160156 -16.613281 4.828125 -18.0625 C 3.503906 -19.519531 2.84375 -21.273438 2.84375 -23.328125 C 2.84375 -24.628906 3.078125 -25.800781 3.546875 -26.84375 C 4.023438 -27.882812 4.675781 -28.773438 5.5 -29.515625 C 6.320312 -30.265625 7.3125 -30.84375 8.46875 -31.25 C 9.625 -31.664062 10.878906 -31.875 12.234375 -31.875 Z M 12.234375 -31.875 "/></g></g><g style="fill:#000000;fill-opacity:1;"><g transform="translate(190.813087, 217.246249)"><path style="stroke:none" d="M 1.328125 -31.296875 C 1.898438 -31.296875 2.507812 -31.28125 3.15625 -31.25 C 3.800781 -31.21875 4.4375 -31.191406 5.0625 -31.171875 C 5.695312 -31.160156 6.273438 -31.144531 6.796875 -31.125 C 7.328125 -31.113281 7.75 -31.109375 8.0625 -31.109375 C 8.375 -31.109375 8.816406 -31.113281 9.390625 -31.125 C 9.960938 -31.144531 10.578125 -31.160156 11.234375 -31.171875 C 11.898438 -31.191406 12.585938 -31.21875 13.296875 -31.25 C 14.015625 -31.28125 14.671875 -31.296875 15.265625 -31.296875 L 15.265625 -30.203125 C 13.941406 -30.203125 13.019531 -30.097656 12.5 -29.890625 C 11.976562 -29.691406 11.585938 -29.367188 11.328125 -28.921875 C 11.203125 -28.703125 11.097656 -28.363281 11.015625 -27.90625 C 10.941406 -27.445312 10.890625 -26.925781 10.859375 -26.34375 C 10.828125 -25.757812 10.800781 -25.140625 10.78125 -24.484375 C 10.769531 -23.835938 10.765625 -23.234375 10.765625 -22.671875 L 10.765625 -10.53125 C 10.765625 -7.300781 11.472656 -4.921875 12.890625 -3.390625 C 14.316406 -1.859375 16.5625 -1.09375 19.625 -1.09375 C 22.976562 -1.09375 25.453125 -1.929688 27.046875 -3.609375 C 28.648438 -5.285156 29.453125 -7.65625 29.453125 -10.71875 L 29.453125 -22.140625 C 29.453125 -22.554688 29.441406 -23.054688 29.421875 -23.640625 C 29.410156 -24.222656 29.390625 -24.804688 29.359375 -25.390625 C 29.328125 -25.972656 29.269531 -26.523438 29.1875 -27.046875 C 29.101562 -27.578125 29 -27.984375 28.875 -28.265625 C 28.53125 -29.023438 28.023438 -29.535156 27.359375 -29.796875 C 26.691406 -30.066406 25.757812 -30.203125 24.5625 -30.203125 L 24.5625 -31.296875 C 25.039062 -31.296875 25.5625 -31.28125 26.125 -31.25 C 26.695312 -31.21875 27.25 -31.191406 27.78125 -31.171875 C 28.320312 -31.160156 28.796875 -31.144531 29.203125 -31.125 C 29.617188 -31.113281 29.90625 -31.109375 30.0625 -31.109375 C 30.25 -31.109375 30.546875 -31.113281 30.953125 -31.125 C 31.367188 -31.144531 31.828125 -31.160156 32.328125 -31.171875 C 32.835938 -31.191406 33.363281 -31.21875 33.90625 -31.25 C 34.445312 -31.28125 34.9375 -31.296875 35.375 -31.296875 L 35.375 -30.203125 C 34.738281 -30.203125 34.207031 -30.171875 33.78125 -30.109375 C 33.351562 -30.046875 33.003906 -29.953125 32.734375 -29.828125 C 32.472656 -29.703125 32.265625 -29.550781 32.109375 -29.375 C 31.953125 -29.195312 31.804688 -29 31.671875 -28.78125 C 31.421875 -28.3125 31.222656 -27.515625 31.078125 -26.390625 C 30.941406 -25.265625 30.875 -23.707031 30.875 -21.71875 L 30.875 -12.328125 C 30.875 -10.273438 30.660156 -8.445312 30.234375 -6.84375 C 29.804688 -5.25 29.101562 -3.898438 28.125 -2.796875 C 27.144531 -1.691406 25.867188 -0.847656 24.296875 -0.265625 C 22.734375 0.316406 20.800781 0.609375 18.5 0.609375 C 16.15625 0.609375 14.1875 0.375 12.59375 -0.09375 C 11 -0.570312 9.703125 -1.289062 8.703125 -2.25 C 7.703125 -3.21875 6.976562 -4.421875 6.53125 -5.859375 C 6.09375 -7.296875 5.875 -8.992188 5.875 -10.953125 L 5.875 -22.671875 C 5.875 -24.242188 5.832031 -25.5625 5.75 -26.625 C 5.675781 -27.6875 5.515625 -28.4375 5.265625 -28.875 C 5.015625 -29.320312 4.617188 -29.65625 4.078125 -29.875 C 3.535156 -30.09375 2.617188 -30.203125 1.328125 -30.203125 Z M 1.328125 -31.296875 "/></g></g><g style="fill:#000000;fill-opacity:1;"><g transform="translate(227.799287, 217.246249)"><path style="stroke:none" d="M 18.828125 -31.875 C 19.710938 -31.875 20.554688 -31.820312 21.359375 -31.71875 C 22.171875 -31.625 22.953125 -31.457031 23.703125 -31.21875 C 24.460938 -30.988281 25.226562 -30.679688 26 -30.296875 C 26.78125 -29.921875 27.597656 -29.460938 28.453125 -28.921875 L 29.21875 -31.15625 L 29.921875 -31.15625 L 30.296875 -21.8125 L 29.21875 -21.8125 C 28.738281 -24.6875 27.585938 -26.898438 25.765625 -28.453125 C 23.953125 -30.003906 21.703125 -30.78125 19.015625 -30.78125 C 17.304688 -30.78125 15.78125 -30.414062 14.4375 -29.6875 C 13.09375 -28.957031 11.953125 -27.910156 11.015625 -26.546875 C 10.085938 -25.191406 9.378906 -23.566406 8.890625 -21.671875 C 8.398438 -19.773438 8.15625 -17.640625 8.15625 -15.265625 C 8.15625 -12.992188 8.40625 -10.941406 8.90625 -9.109375 C 9.414062 -7.273438 10.144531 -5.71875 11.09375 -4.4375 C 12.039062 -3.15625 13.1875 -2.171875 14.53125 -1.484375 C 15.875 -0.804688 17.382812 -0.46875 19.0625 -0.46875 C 20.394531 -0.46875 21.613281 -0.640625 22.71875 -0.984375 C 23.820312 -1.335938 24.816406 -1.914062 25.703125 -2.71875 C 26.585938 -3.53125 27.367188 -4.597656 28.046875 -5.921875 C 28.722656 -7.253906 29.300781 -8.914062 29.78125 -10.90625 L 30.640625 -10.90625 L 30.640625 -0.515625 L 30.015625 -0.515625 L 28.875 -2.9375 C 27.457031 -1.800781 25.914062 -0.925781 24.25 -0.3125 C 22.59375 0.300781 20.628906 0.609375 18.359375 0.609375 C 15.921875 0.609375 13.703125 0.222656 11.703125 -0.546875 C 9.710938 -1.316406 8.015625 -2.390625 6.609375 -3.765625 C 5.203125 -5.140625 4.117188 -6.789062 3.359375 -8.71875 C 2.609375 -10.65625 2.234375 -12.773438 2.234375 -15.078125 C 2.234375 -17.546875 2.640625 -19.804688 3.453125 -21.859375 C 4.273438 -23.910156 5.421875 -25.679688 6.890625 -27.171875 C 8.367188 -28.660156 10.125 -29.816406 12.15625 -30.640625 C 14.195312 -31.460938 16.421875 -31.875 18.828125 -31.875 Z M 18.828125 -31.875 "/></g></g></g></svg>