<svg xmlns="http://www.w3.org/2000/svg" xmlns:xlink="http://www.w3.org/1999/xlink" width="500" zoomAndPan="magnify" viewBox="0 0 375 374.999991" height="500" preserveAspectRatio="xMidYMid meet" version="1.2"><defs><clipPath id="e8ab0941b1"><path d="M 84 4.886719 L 295 4.886719 L 295 370.136719 L 84 370.136719 Z M 84 4.886719 "/></clipPath></defs><g id="b07ed33062"><rect x="0" width="375" y="0" height="374.999991" style="fill:#ffffff;fill-opacity:1;stroke:none;"/><rect x="0" width="375" y="0" height="374.999991" style="fill:#ffffff;fill-opacity:1;stroke:none;"/><g clip-rule="nonzero" clip-path="url(#e8ab0941b1)"><path style=" stroke:none;fill-rule:nonzero;fill:#211915;fill-opacity:1;" d="M 290.777344 108.390625 L 262.167969 7.277344 C 261.777344 5.871094 260.484375 4.886719 259.03125 4.886719 L 120.183594 4.886719 C 118.710938 4.886719 117.421875 5.871094 117.027344 7.292969 L 88.585938 110.339844 C 74.886719 159.988281 97.070312 212.15625 141.320312 234.414062 C 155.460938 241.515625 170.644531 245.328125 186.484375 245.820312 L 186.484375 363.660156 L 119.546875 363.660156 C 117.746094 363.660156 116.277344 365.132812 116.277344 366.929688 C 116.277344 368.730469 117.746094 370.203125 119.546875 370.203125 L 259.980469 370.203125 C 261.777344 370.203125 263.25 368.730469 263.25 366.929688 C 263.25 365.132812 261.777344 363.660156 259.980469 363.660156 L 193.023438 363.660156 L 193.023438 245.867188 C 194.511719 245.835938 196 245.769531 197.46875 245.671875 C 228.414062 243.578125 256.613281 227.523438 274.839844 201.621094 C 294.011719 174.371094 299.816406 140.382812 290.777344 108.390625 Z M 94.894531 112.089844 L 122.667969 11.433594 L 256.5625 11.433594 L 284.5 110.175781 C 288.714844 125.082031 289.5 140.449219 287.015625 155.277344 C 286.804688 155.359375 286.589844 155.472656 286.394531 155.601562 C 267.761719 168.433594 245.152344 175.550781 222.742188 175.632812 L 222.398438 175.632812 C 208.894531 175.632812 195.394531 172.65625 182.332031 169.773438 C 173.097656 167.730469 163.550781 165.632812 153.9375 164.539062 C 137.527344 162.671875 114.332031 162.101562 98.132812 177.335938 C 90.285156 157.273438 88.714844 134.410156 94.878906 112.074219 Z M 269.507812 197.855469 C 252.425781 222.140625 226.011719 237.195312 197.0625 239.144531 C 194.757812 239.289062 192.402344 239.371094 190.066406 239.371094 C 173.964844 239.371094 158.566406 235.738281 144.277344 228.554688 C 124.824219 218.785156 109.933594 202.832031 100.925781 183.832031 C 111.75 172.292969 128.371094 168.21875 153.21875 171.050781 C 162.488281 172.113281 171.871094 174.175781 180.945312 176.171875 C 194.347656 179.136719 208.210938 182.195312 222.414062 182.195312 L 222.789062 182.195312 C 244.515625 182.113281 266.402344 175.765625 285.085938 164.261719 C 281.996094 176.125 276.800781 187.511719 269.527344 197.855469 Z M 269.507812 197.855469 "/></g><path style=" stroke:none;fill-rule:nonzero;fill:#ffffff;fill-opacity:1;" d="M 157.074219 148.757812 L 217.597656 148.757812 C 222.679688 148.757812 227.550781 150.777344 231.144531 154.371094 C 234.738281 157.960938 236.753906 162.835938 236.753906 167.917969 L 236.753906 206.230469 C 236.753906 216.808594 228.179688 225.386719 217.597656 225.386719 L 157.074219 225.386719 C 146.492188 225.386719 137.917969 216.808594 137.917969 206.230469 L 137.917969 167.917969 C 137.917969 157.335938 146.492188 148.757812 157.074219 148.757812 Z M 157.074219 148.757812 "/><g style="fill:#000000;fill-opacity:1;"><g transform="translate(159.996417, 195.749987)"><path style="stroke:none" d="M -1.65625 -36.296875 C -1.175781 -36.296875 -0.582031 -36.273438 0.125 -36.234375 C 0.84375 -36.203125 1.578125 -36.175781 2.328125 -36.15625 C 3.085938 -36.144531 3.804688 -36.128906 4.484375 -36.109375 C 5.160156 -36.085938 5.703125 -36.078125 6.109375 -36.078125 C 7.535156 -36.078125 9 -36.113281 10.5 -36.1875 C 12.007812 -36.257812 13.238281 -36.296875 14.1875 -36.296875 L 14.1875 -35.03125 L 13.96875 -35.03125 C 12.425781 -35.03125 11.363281 -34.835938 10.78125 -34.453125 C 10.195312 -34.066406 9.90625 -33.507812 9.90625 -32.78125 C 9.90625 -32.375 10.039062 -31.6875 10.3125 -30.71875 C 10.582031 -29.75 10.925781 -28.65625 11.34375 -27.4375 C 11.769531 -26.226562 12.222656 -24.972656 12.703125 -23.671875 C 13.179688 -22.367188 13.640625 -21.1875 14.078125 -20.125 L 19.6875 -6.15625 L 24.640625 -18.265625 C 25.003906 -19.140625 25.429688 -20.265625 25.921875 -21.640625 C 26.421875 -23.015625 26.898438 -24.40625 27.359375 -25.8125 C 27.816406 -27.226562 28.210938 -28.539062 28.546875 -29.75 C 28.878906 -30.957031 29.046875 -31.820312 29.046875 -32.34375 C 29.046875 -33 28.929688 -33.507812 28.703125 -33.875 C 28.484375 -34.25 28.179688 -34.515625 27.796875 -34.671875 C 27.410156 -34.835938 26.953125 -34.9375 26.421875 -34.96875 C 25.890625 -35.007812 25.332031 -35.03125 24.75 -35.03125 L 24.75 -36.296875 C 25.007812 -36.296875 25.410156 -36.285156 25.953125 -36.265625 C 26.503906 -36.253906 27.09375 -36.226562 27.71875 -36.1875 C 28.34375 -36.15625 28.957031 -36.128906 29.5625 -36.109375 C 30.164062 -36.085938 30.648438 -36.078125 31.015625 -36.078125 C 31.128906 -36.078125 31.269531 -36.078125 31.4375 -36.078125 C 31.601562 -36.078125 31.894531 -36.085938 32.3125 -36.109375 C 32.726562 -36.128906 33.285156 -36.15625 33.984375 -36.1875 C 34.679688 -36.226562 35.617188 -36.265625 36.796875 -36.296875 L 36.796875 -35.03125 C 35.660156 -35 34.753906 -34.78125 34.078125 -34.375 C 33.398438 -33.96875 32.800781 -33.4375 32.28125 -32.78125 C 31.988281 -32.414062 31.722656 -31.96875 31.484375 -31.4375 C 31.242188 -30.90625 31.003906 -30.332031 30.765625 -29.71875 C 30.535156 -29.113281 30.316406 -28.507812 30.109375 -27.90625 C 29.910156 -27.300781 29.703125 -26.742188 29.484375 -26.234375 L 18.484375 1.09375 L 16.828125 1.09375 L 4.015625 -30.75 C 3.503906 -32.0625 2.816406 -33.09375 1.953125 -33.84375 C 1.085938 -34.601562 -0.113281 -35 -1.65625 -35.03125 Z M -1.65625 -36.296875 "/></g></g><g style="fill:#000000;fill-opacity:1;"><g transform="translate(195.193864, 195.749987)"><path style="stroke:none" d="M 12.765625 -10.78125 C 12.765625 -8.582031 12.800781 -6.847656 12.875 -5.578125 C 12.945312 -4.316406 13.144531 -3.351562 13.46875 -2.6875 C 13.800781 -2.03125 14.320312 -1.609375 15.03125 -1.421875 C 15.75 -1.242188 16.753906 -1.15625 18.046875 -1.15625 L 18.046875 0.109375 C 17.597656 0.109375 16.976562 0.0976562 16.1875 0.078125 C 15.40625 0.0664062 14.609375 0.0390625 13.796875 0 C 12.992188 -0.0390625 12.234375 -0.0664062 11.515625 -0.078125 C 10.804688 -0.0976562 10.320312 -0.109375 10.0625 -0.109375 C 9.914062 -0.109375 9.566406 -0.0976562 9.015625 -0.078125 C 8.460938 -0.0664062 7.789062 -0.0507812 7 -0.03125 C 6.21875 -0.0078125 5.378906 0.015625 4.484375 0.046875 C 3.585938 0.0859375 2.695312 0.109375 1.8125 0.109375 L 1.8125 -1.15625 C 3.132812 -1.15625 4.148438 -1.253906 4.859375 -1.453125 C 5.578125 -1.660156 6.101562 -2.101562 6.4375 -2.78125 C 6.769531 -3.457031 6.960938 -4.460938 7.015625 -5.796875 C 7.066406 -7.140625 7.09375 -8.945312 7.09375 -11.21875 L 7.09375 -25.515625 C 7.09375 -27.640625 7.054688 -29.332031 6.984375 -30.59375 C 6.910156 -31.863281 6.707031 -32.828125 6.375 -33.484375 C 6.050781 -34.148438 5.53125 -34.570312 4.8125 -34.75 C 4.09375 -34.9375 3.09375 -35.03125 1.8125 -35.03125 L 1.8125 -36.296875 C 2.21875 -36.296875 2.804688 -36.273438 3.578125 -36.234375 C 4.347656 -36.203125 5.125 -36.175781 5.90625 -36.15625 C 6.695312 -36.144531 7.445312 -36.128906 8.15625 -36.109375 C 8.875 -36.085938 9.382812 -36.078125 9.6875 -36.078125 C 10.125 -36.078125 10.671875 -36.085938 11.328125 -36.109375 C 11.984375 -36.128906 12.6875 -36.144531 13.4375 -36.15625 C 14.195312 -36.175781 14.976562 -36.203125 15.78125 -36.234375 C 16.59375 -36.273438 17.347656 -36.296875 18.046875 -36.296875 L 18.046875 -35.03125 C 16.753906 -35.03125 15.75 -34.929688 15.03125 -34.734375 C 14.320312 -34.535156 13.800781 -34.113281 13.46875 -33.46875 C 13.144531 -32.820312 12.945312 -31.863281 12.875 -30.59375 C 12.800781 -29.332031 12.765625 -27.640625 12.765625 -25.515625 Z M 12.765625 -10.78125 "/></g></g></g></svg>